<svg width="50" height="50" viewBox="0 0 75 62" fill="none" xmlns="http://www.w3.org/2000/svg">
<path d="M14.28 42.8883C11.7733 42.8883 9.61333 42.4749 7.8 41.6483C5.98667 40.8216 4.57333 39.6083 3.56 38.0083C2.57333 36.4083 2.02667 34.4216 1.92 32.0483C1.89333 30.9549 1.88 29.7816 1.88 28.5283C1.88 27.2749 1.89333 26.0749 1.92 24.9283C2.02667 22.6083 2.58667 20.6349 3.6 19.0083C4.61333 17.3816 6.02667 16.1549 7.84 15.3283C9.65333 14.5016 11.8 14.0883 14.28 14.0883C16.04 14.0883 17.6667 14.3149 19.16 14.7683C20.6533 15.1949 21.96 15.8349 23.08 16.6883C24.2 17.5149 25.0667 18.5283 25.68 19.7283C26.32 20.9016 26.6533 22.2349 26.68 23.7283C26.7067 23.9683 26.6267 24.1683 26.44 24.3283C26.28 24.4883 26.08 24.5683 25.84 24.5683H20.44C20.0933 24.5683 19.8267 24.5016 19.64 24.3683C19.4533 24.2083 19.2933 23.9283 19.16 23.5283C18.7867 22.1149 18.1733 21.1549 17.32 20.6483C16.4933 20.1149 15.4667 19.8483 14.24 19.8483C12.7733 19.8483 11.6133 20.2616 10.76 21.0883C9.90667 21.8883 9.44 23.2349 9.36 25.1283C9.28 27.3149 9.28 29.5549 9.36 31.8483C9.44 33.7416 9.90667 35.1016 10.76 35.9283C11.6133 36.7283 12.7733 37.1283 14.24 37.1283C15.4667 37.1283 16.5067 36.8616 17.36 36.3283C18.2133 35.7949 18.8133 34.8349 19.16 33.4483C19.2667 33.0483 19.4133 32.7816 19.6 32.6483C19.8133 32.4883 20.0933 32.4083 20.44 32.4083H25.84C26.08 32.4083 26.28 32.4883 26.44 32.6483C26.6267 32.8083 26.7067 33.0083 26.68 33.2483C26.6533 34.7416 26.32 36.0883 25.68 37.2883C25.0667 38.4616 24.2 39.4749 23.08 40.3283C21.96 41.1549 20.6533 41.7949 19.16 42.2483C17.6667 42.6749 16.04 42.8883 14.28 42.8883ZM41.6459 42.8883C39.7259 42.8883 38.0593 42.6216 36.6459 42.0883C35.2593 41.5283 34.0993 40.7683 33.1659 39.8083C32.2326 38.8483 31.5259 37.7283 31.0459 36.4483C30.5659 35.1683 30.2859 33.7949 30.2059 32.3283C30.1793 31.6083 30.1526 30.7949 30.1259 29.8883C30.1259 28.9549 30.1259 28.0216 30.1259 27.0883C30.1526 26.1283 30.1793 25.2749 30.2059 24.5283C30.2859 23.0616 30.5659 21.7016 31.0459 20.4483C31.5526 19.1683 32.2726 18.0616 33.2059 17.1283C34.1659 16.1683 35.3393 15.4216 36.7259 14.8883C38.1393 14.3549 39.7793 14.0883 41.6459 14.0883C43.5393 14.0883 45.1793 14.3549 46.5659 14.8883C47.9793 15.4216 49.1526 16.1683 50.0859 17.1283C51.0193 18.0616 51.7393 19.1683 52.2459 20.4483C52.7526 21.7016 53.0459 23.0616 53.1259 24.5283C53.1526 25.2749 53.1659 26.1283 53.1659 27.0883C53.1926 28.0216 53.1926 28.9549 53.1659 29.8883C53.1659 30.7949 53.1526 31.6083 53.1259 32.3283C53.0459 33.7949 52.7526 35.1683 52.2459 36.4483C51.7659 37.7283 51.0593 38.8483 50.1259 39.8083C49.2193 40.7683 48.0593 41.5283 46.6459 42.0883C45.2593 42.6216 43.5926 42.8883 41.6459 42.8883ZM41.6459 37.0883C43.0326 37.0883 44.0326 36.6483 44.6459 35.7683C45.2859 34.8616 45.6193 33.6483 45.6459 32.1283C45.6993 31.3549 45.7259 30.5416 45.7259 29.6883C45.7526 28.8349 45.7526 27.9816 45.7259 27.1283C45.7259 26.2749 45.6993 25.4883 45.6459 24.7683C45.6193 23.3016 45.2859 22.1149 44.6459 21.2083C44.0326 20.3016 43.0326 19.8349 41.6459 19.8083C40.2859 19.8349 39.2859 20.3016 38.6459 21.2083C38.0326 22.1149 37.6993 23.3016 37.6459 24.7683C37.6459 25.4883 37.6326 26.2749 37.6059 27.1283C37.6059 27.9816 37.6059 28.8349 37.6059 29.6883C37.6326 30.5416 37.6459 31.3549 37.6459 32.1283C37.6993 33.6483 38.0459 34.8616 38.6859 35.7683C39.3259 36.6483 40.3126 37.0883 41.6459 37.0883Z" fill="#00D5E4"/>
<path d="M57.943 50.4883C57.7303 50.4883 57.5467 50.4206 57.392 50.2853C57.2567 50.1306 57.189 49.9566 57.189 49.7633V47.7043C57.189 47.5689 57.2277 47.3659 57.305 47.0953C57.3823 46.8053 57.5853 46.5346 57.914 46.2833L60.93 43.3253C62.4767 42.1459 63.743 41.1503 64.729 40.3383C65.7343 39.5069 66.4787 38.7723 66.962 38.1343C67.4453 37.4963 67.687 36.8969 67.687 36.3363C67.687 35.6789 67.513 35.1376 67.165 34.7123C66.8363 34.2676 66.2563 34.0453 65.425 34.0453C64.8643 34.0453 64.4003 34.1709 64.033 34.4223C63.6657 34.6543 63.3757 34.9636 63.163 35.3503C62.9697 35.7369 62.8343 36.1333 62.757 36.5393C62.6797 36.7906 62.5443 36.9646 62.351 37.0613C62.177 37.1579 61.9837 37.2063 61.771 37.2063H58.146C57.972 37.2063 57.827 37.1483 57.711 37.0323C57.595 36.9163 57.537 36.7713 57.537 36.5973C57.5563 35.6693 57.7497 34.7993 58.117 33.9873C58.5037 33.1559 59.0353 32.4309 59.712 31.8123C60.408 31.1936 61.2297 30.7103 62.177 30.3623C63.1437 29.9949 64.2263 29.8113 65.425 29.8113C67.0683 29.8113 68.4603 30.0819 69.601 30.6233C70.761 31.1453 71.6407 31.8799 72.24 32.8273C72.8393 33.7553 73.139 34.8476 73.139 36.1043C73.139 37.0516 72.9263 37.9409 72.501 38.7723C72.095 39.5843 71.5053 40.3673 70.732 41.1213C69.978 41.8559 69.079 42.6196 68.035 43.4123L65.367 46.1093H72.82C73.0327 46.1093 73.2067 46.1769 73.342 46.3123C73.4967 46.4476 73.574 46.6216 73.574 46.8343V49.7633C73.574 49.9566 73.4967 50.1306 73.342 50.2853C73.2067 50.4206 73.0327 50.4883 72.82 50.4883H57.943Z" fill="#00D5E4"/>
</svg>
