<svg width="110" height="102" viewBox="0 0 110 102" fill="none" xmlns="http://www.w3.org/2000/svg">
<path d="M107.811 76.6193C106.915 79.5259 105.785 82.3547 104.432 85.0784C101.748 90.5004 98.2633 95.3991 94.3623 99.7939C93.5099 100.754 92.2193 101.199 90.9566 100.969C89.694 100.738 88.643 99.8663 88.1849 98.6672C87.7265 97.4689 87.9279 96.1176 88.7146 95.1038L88.7252 95.0903C91.8993 91.0013 94.597 86.6159 96.5672 81.991L96.5671 81.9919C90.4925 83.3064 84.3394 84.2275 78.1463 84.7482C77.3588 84.807 76.5738 84.8793 75.7853 84.9265L73.4132 85.0451L72.2277 85.1036L71.0363 85.1278L68.654 85.1727C67.8575 85.1739 67.0599 85.1513 66.2632 85.1411L65.0678 85.1209C64.6692 85.1109 64.2686 85.0849 63.8696 85.0679L61.4739 84.9498L59.0745 84.7534C58.675 84.718 58.2754 84.6913 57.875 84.6479L56.6748 84.5074C55.875 84.4068 55.0753 84.335 54.2767 84.2033L51.8821 83.8224C51.0845 83.69 50.2891 83.5171 49.4937 83.3652L49.4922 83.364C46.2929 82.7212 43.1379 81.8759 40.0453 80.8335C33.8543 78.6804 27.8628 75.6661 22.5757 71.6358C17.2898 67.6249 12.7692 62.6961 9.22948 57.084C5.77511 51.5564 3.27753 45.4859 1.84223 39.1275C1.13318 35.9993 0.668798 32.8206 0.453119 29.6199C0.366163 28.0235 0.303126 26.4294 0.338134 24.8329C0.354415 23.2387 0.44345 21.6463 0.604064 20.0575C0.758331 18.4699 1.00358 16.8889 1.29277 15.3186L1.29361 15.3188C1.60123 13.7437 1.98804 12.1859 2.45288 10.651C3.41917 7.58109 4.69875 4.55913 6.65199 1.82271C7.34307 0.854632 8.6675 0.591346 9.67613 1.22111C10.6839 1.8507 11.0285 3.15706 10.4625 4.20243L10.4417 4.23995C9.80612 5.43724 9.2836 6.69021 8.88068 7.98413C8.45868 9.30304 8.11852 10.6474 7.86188 12.0092C7.61639 13.3846 7.43004 14.7731 7.30317 16.173C7.19822 17.5765 7.12956 18.9814 7.14338 20.3919L7.14321 20.3927C7.15762 23.2103 7.39005 26.0224 7.8395 28.8042C8.29778 31.5689 8.95353 34.2967 9.80172 36.9665C10.6609 39.6038 11.7202 42.1702 12.9716 44.6454C14.2002 47.0924 15.641 49.4274 17.2778 51.6223C18.8957 53.7908 20.6953 55.8181 22.6555 57.6835C24.608 59.5308 26.7206 61.2012 28.9689 62.6756C31.2199 64.1489 33.5841 65.4408 36.0399 66.5373C38.5171 67.6365 41.0706 68.5555 43.6805 69.2857C49.004 70.7423 54.4753 71.5917 59.9908 71.817L62.0824 71.9054L64.1848 71.9246C64.5355 71.9264 64.8845 71.9366 65.2359 71.9307L66.2916 71.9056L68.4012 71.8565L70.5171 71.7513L71.5748 71.6996L72.6352 71.6144L74.7545 71.4463C75.4609 71.383 76.169 71.2948 76.8751 71.221C82.3236 70.6484 87.7706 69.7122 93.2067 68.5839C91.8333 68.0461 90.4757 67.461 89.1358 66.8282L89.1346 66.8297C84.3261 64.563 79.8466 61.6542 75.8199 58.1828C74.6085 57.134 74.0438 55.5226 74.3368 53.9471C74.6295 52.3724 75.7352 51.071 77.2421 50.5274C78.7489 49.9838 80.4308 50.2803 81.6617 51.3062L81.6677 51.3109L81.6669 51.3107C85.1215 54.1788 88.9482 56.5643 93.0437 58.4025C97.1927 60.2518 101.538 61.6233 105.996 62.491L109.772 67.6519C109.369 70.6899 108.713 73.6898 107.812 76.6188L107.811 76.6193Z" fill="#00D5E4"/>
</svg>
