<svg width="50" height="50" viewBox="0 0 50 50" fill="none" xmlns="http://www.w3.org/2000/svg">
<path d="M47.8438 33.9921C48.8685 32.6851 49.3599 31.284 49.2971 29.8411C49.2344 28.2518 48.5234 27.0075 47.9379 26.2442C48.6175 24.5504 48.8789 21.8841 46.61 19.8139C44.9475 18.2978 42.1244 17.6182 38.2139 17.8064C35.464 17.9318 33.1637 18.4442 33.0696 18.4651H33.0592C32.5364 18.5592 31.9822 18.6742 31.4176 18.7997C31.3758 18.1305 31.4908 16.468 32.7246 12.7248C34.1884 8.2706 34.1048 4.86198 32.4527 2.5826C30.7171 0.188206 27.9463 0 27.1307 0C26.3465 0 25.625 0.324132 25.1127 0.920117C23.9521 2.26892 24.088 4.75742 24.2344 5.90757C22.8542 9.60895 18.9856 18.6847 15.7129 21.2045C15.6501 21.2463 15.5979 21.2986 15.5456 21.3509C14.5836 22.3651 13.9354 23.463 13.4962 24.4249C12.8793 24.0903 12.1788 23.9021 11.426 23.9021H5.04789C2.64304 23.9021 0.698242 25.8574 0.698242 28.2518V45.2426C0.698242 47.6474 2.65349 49.5922 5.04789 49.5922H11.426C12.3565 49.5922 13.2244 49.2995 13.9354 48.7976L16.3925 49.0903C16.7689 49.1426 23.4607 49.9895 30.3302 49.8536C31.5744 49.9477 32.7455 50 33.8329 50C35.7045 50 37.3356 49.8536 38.6949 49.5609C41.8944 48.8812 44.0797 47.522 45.188 45.5249C46.0349 43.9983 46.0349 42.4822 45.899 41.5203C47.9797 39.6382 48.3457 37.5575 48.2725 36.0937C48.2307 35.2468 48.0424 34.5253 47.8438 33.9921ZM5.04789 46.7691C4.20096 46.7691 3.52133 46.079 3.52133 45.2426V28.2413C3.52133 27.3944 4.21142 26.7148 5.04789 26.7148H11.426C12.2729 26.7148 12.9525 27.4049 12.9525 28.2413V45.2321C12.9525 46.079 12.2624 46.7587 11.426 46.7587H5.04789V46.7691ZM45.1671 32.7687C44.7279 33.2288 44.6443 33.9293 44.9789 34.473C44.9789 34.4835 45.4076 35.2154 45.4598 36.2192C45.533 37.5889 44.8743 38.8018 43.4941 39.8369C43.0027 40.2133 42.8041 40.8616 43.0132 41.4471C43.0132 41.4575 43.4628 42.8377 42.7309 44.1447C42.0303 45.3994 40.4724 46.2986 38.1094 46.8005C36.2169 47.2083 33.6447 47.2815 30.487 47.0305C30.4452 47.0305 30.3929 47.0305 30.3406 47.0305C23.6175 47.1769 16.8212 46.2986 16.748 46.2882H16.7376L15.6815 46.1627C15.7442 45.8699 15.7756 45.5563 15.7756 45.2426V28.2413C15.7756 27.7917 15.7024 27.3526 15.577 26.9448C15.7652 26.2442 16.288 24.6863 17.5217 23.3584C22.2164 19.6361 26.8066 7.07863 27.0052 6.53492C27.0889 6.31535 27.1098 6.07486 27.068 5.83438C26.8902 4.66332 26.9529 3.23087 27.2039 2.80217C27.758 2.81263 29.2532 2.96947 30.1524 4.21372C31.2189 5.688 31.1771 8.32288 30.027 11.8151C28.2704 17.1372 28.124 19.9394 29.5146 21.1731C30.2047 21.79 31.1248 21.8214 31.794 21.5809C32.4318 21.4345 33.0383 21.3091 33.6133 21.215C33.6552 21.2045 33.7074 21.1941 33.7493 21.1836C36.9592 20.4831 42.7099 20.0544 44.707 21.8737C46.4009 23.4212 45.1984 25.4705 45.0625 25.6901C44.6757 26.2756 44.7907 27.0389 45.3135 27.5094C45.3239 27.5199 46.4218 28.555 46.4741 29.9456C46.5159 30.8762 46.0767 31.8277 45.1671 32.7687Z" fill="#00D5E4" stroke="#00D5E4"/>
</svg>
