<svg width="53" height="55" viewBox="0 0 53 55" fill="none" xmlns="http://www.w3.org/2000/svg">
<path d="M39.2006 6.07849L36.3897 9.11851C34.3187 7.67889 32.1003 6.71918 29.7332 6.23933V1.28003C29.7332 0.959747 29.5857 0.640577 29.4371 0.32029C29.1409 2.58833e-06 28.8458 0 28.5497 0H22.3367C21.5969 0 21.1532 0.63946 21.1532 1.28003V6.40017C19.0822 6.88005 17.0112 7.83979 15.0879 9.1198L12.1296 5.92036C11.6859 5.44049 10.7985 5.44049 10.3548 5.92036L5.9167 10.7202C5.47299 11.2001 5.47299 12.1599 5.9167 12.6397L8.87498 15.8392C7.69143 17.9193 6.80405 20.1591 6.21282 22.5586H1.18355C0.443703 22.5586 0 23.1981 0 23.8386V30.5581C0 30.8784 0.147557 31.1975 0.296148 31.5178C0.443703 31.8381 0.887405 31.8381 1.18355 31.8381H6.06516C6.50886 34.3982 7.39627 36.7974 8.72732 39.1981L5.91643 42.2381C5.47273 42.718 5.47273 43.6777 5.91643 44.1576L10.3545 48.9575C10.7982 49.4373 11.6856 49.4373 12.1293 48.9575L14.9402 45.9174C16.8636 47.1975 18.9345 48.1572 21.0055 48.6371V53.4369C21.0055 53.7572 21.1531 54.0764 21.3016 54.3967C21.5978 54.717 21.8929 54.717 22.1891 54.717H28.402C28.6981 54.717 28.9933 54.5574 29.2894 54.3967C29.5856 54.0764 29.5856 53.7572 29.5856 53.4369V48.7979C31.9526 48.318 34.3198 47.1976 36.3907 45.7579L38.9054 48.4775C39.3491 48.9574 40.2365 48.9574 40.6802 48.4775L45.1183 43.6776C45.562 43.1978 45.562 42.238 45.1183 41.7581L42.4561 38.8789C43.7872 36.6392 44.6746 34.2399 45.1183 31.6798H48.8164C49.1126 31.6798 49.4077 31.5203 49.7039 31.3596C50 31.0393 50 30.7201 50 30.3998V23.6804C50 23.3601 49.8524 23.0409 49.7039 22.7206C49.4077 22.4003 49.1126 22.4003 48.8164 22.4003H44.9706C44.5269 20.1606 43.6395 17.9207 42.456 15.8406L45.2669 12.8006C45.7106 12.3207 45.7106 11.361 45.2669 10.8811L40.8288 6.0812C40.5316 5.43951 39.7928 5.43951 39.2005 6.07897L39.2006 6.07849ZM34.4674 36.6359C29.7332 41.756 21.8931 41.756 17.1599 36.6359C12.4257 31.5158 12.4257 23.0365 17.1599 17.9175C21.8941 12.7973 29.7343 12.7973 34.4674 17.9175C39.2006 23.0376 39.2006 31.5169 34.4674 36.6359Z" fill="#00D5E4"/>
<line x1="1.06066" y1="2.93934" x2="47.2368" y2="49.1155" stroke="#00D5E4" stroke-width="3"/>
<line x1="51.067" y1="7.11575" x2="0.962036" y2="48.9962" stroke="#00D5E4" stroke-width="3"/>
</svg>
