<svg width="122" height="98" viewBox="0 0 122 98" fill="none" xmlns="http://www.w3.org/2000/svg">
<path d="M109.938 24.3808C109.039 21.7395 107.927 19.1758 106.615 16.7143C104.01 11.8142 100.684 7.41515 96.9909 3.4891C96.1839 2.63144 94.9887 2.25735 93.837 2.50186C92.6855 2.74712 91.7449 3.57456 91.3567 4.6862C90.9683 5.79709 91.1888 7.03076 91.9371 7.93941L91.9472 7.95149C94.966 11.6165 97.556 15.5658 99.4853 19.754L99.4852 19.7533C93.8804 18.7092 88.2142 18.0281 82.5219 17.7151C81.7983 17.6821 81.0766 17.6366 80.3524 17.6143L78.1743 17.5686L77.0857 17.5464L75.9927 17.5559L73.8071 17.5779C73.0768 17.598 72.3461 17.6399 71.6158 17.6704L70.5203 17.7207C70.1551 17.7404 69.7885 17.7749 69.4231 17.8011L67.2296 17.973L65.0348 18.2167C64.6695 18.2598 64.3038 18.2949 63.9378 18.3454L62.8411 18.5061C62.1104 18.6195 61.3791 18.7066 60.6503 18.8486L58.4648 19.2614C57.737 19.404 57.0123 19.5836 56.287 19.744L56.2857 19.7451C53.3693 20.4195 50.4989 21.2784 47.691 22.3162C42.0716 24.4548 36.6581 27.3777 31.9173 31.2135C27.1772 35.0315 23.1631 39.6707 20.0665 44.9104C17.046 50.0704 14.9171 55.7028 13.7699 61.571C13.2029 64.458 12.8615 67.3849 12.7487 70.3254C12.7114 71.7914 12.6959 73.2548 12.7704 74.7176C12.8276 76.179 12.9516 77.6367 13.141 79.0892C13.3246 80.5407 13.5915 81.9838 13.8983 83.4159L13.8991 83.4158C14.223 84.8518 14.619 86.2699 15.086 87.6649C16.0535 90.454 17.307 93.1909 19.1706 95.6481C19.8299 96.5174 21.0513 96.7236 21.9594 96.1194C22.8667 95.5154 23.1479 94.3084 22.6013 93.3649L22.5812 93.3311C21.9666 92.2501 21.4543 91.1152 21.0505 89.9395C20.6285 88.7414 20.2809 87.5177 20.0094 86.2759C19.7478 85.0213 19.5401 83.7532 19.3866 82.473C19.2531 81.1889 19.1528 79.9025 19.1281 78.6089L19.1279 78.6081C19.0663 76.0243 19.2047 73.4397 19.543 70.8771C19.8897 68.3301 20.4186 65.8115 21.1254 63.341C21.8431 60.9001 22.7462 58.5188 23.828 56.2161C24.8894 53.9398 26.1485 51.7606 27.5911 49.7045C29.017 47.6733 30.6131 45.7667 32.3609 44.0042C34.1022 42.2586 35.9949 40.6709 38.0172 39.2593C40.042 37.8487 42.1754 36.6013 44.3981 35.5308C46.6402 34.4572 48.9571 33.5467 51.3308 32.8079C56.1732 31.331 61.1672 30.4068 66.2185 30.0538L68.1339 29.9172L70.0611 29.8438C70.3826 29.8328 70.7023 29.8142 71.0247 29.8103L71.9934 29.8053L73.9289 29.7943L75.8718 29.8345L76.843 29.8539L77.8175 29.9039L79.7651 30.0017C80.4146 30.041 81.0662 30.1031 81.7155 30.152C86.7265 30.5323 91.7457 31.2461 96.76 32.1363C95.515 32.6659 94.2858 33.2384 93.0741 33.8542L93.0729 33.8528C88.7241 36.0589 84.6942 38.8449 81.0942 42.1348C80.0114 43.1286 79.5363 44.621 79.8468 46.0578C80.157 47.4939 81.2054 48.6578 82.6015 49.1162C83.9976 49.5747 85.5318 49.2581 86.6332 48.2848L86.6386 48.2803L86.6378 48.2805C89.7292 45.559 93.1746 43.2701 96.8809 41.4759C100.636 39.6701 104.584 38.2973 108.648 37.3833L111.973 32.551C111.523 29.7762 110.842 27.0429 109.938 24.3813L109.938 24.3808Z" fill="#00D5E4"/>
</svg>
