<svg width="22" height="14" viewBox="0 0 22 14" fill="none" xmlns="http://www.w3.org/2000/svg">
<path d="M11.6789 12.9123L21.6351 2.46294C21.8013 2.28858 21.894 2.05694 21.894 1.81606C21.894 1.57518 21.8013 1.34354 21.6351 1.16919L21.6239 1.15794C21.5433 1.07312 21.4463 1.00558 21.3388 0.959434C21.2313 0.913282 21.1155 0.889484 20.9986 0.889484C20.8816 0.889484 20.7658 0.913282 20.6583 0.959434C20.5508 1.00558 20.4538 1.07312 20.3732 1.15794L10.9982 10.9979L1.62699 1.15794C1.54641 1.07312 1.44943 1.00559 1.34193 0.959435C1.23443 0.913284 1.11866 0.889485 1.00168 0.889485C0.884688 0.889485 0.768924 0.913284 0.661425 0.959435C0.553925 1.00559 0.456939 1.07312 0.376363 1.15794L0.365113 1.16919C0.198903 1.34354 0.106183 1.57518 0.106183 1.81606C0.106183 2.05695 0.198903 2.28859 0.365113 2.46294L10.3214 12.9123C10.4089 13.0042 10.5142 13.0774 10.6309 13.1274C10.7476 13.1773 10.8732 13.2031 11.0001 13.2031C11.127 13.2031 11.2527 13.1773 11.3693 13.1274C11.486 13.0774 11.5913 13.0042 11.6789 12.9123Z" fill="#00D5E4"/>
</svg>
