<svg width="50" height="50" viewBox="0 0 43 47" fill="none" xmlns="http://www.w3.org/2000/svg">
<path d="M2.60352 15.4822L3.63656 15.7206L3.95442 14.5286C4.28611 14.5928 4.57487 14.795 4.74906 15.0848C4.93637 15.4339 5.07011 15.8089 5.14638 16.1973C5.30531 17.0746 5.68845 17.8959 6.25888 18.5813C7.04927 19.3326 8.10926 19.7336 9.19906 19.6938L10.1526 19.8527L12.1392 21.2036C11.6096 22.1444 11.44 23.2459 11.6625 24.3027L11.9008 24.9384L12.5366 25.4152L18.7348 31.6134C19.2318 32.1214 19.6355 32.7131 19.9267 33.3616V33.1232L20.1651 32.9643C20.8722 32.6088 21.4337 32.0189 21.7544 31.2956C21.9662 30.679 22.0996 30.0383 22.1517 29.3884C22.5799 29.3043 22.9769 29.1039 23.299 28.8098C23.6215 28.5154 23.8567 28.1386 23.9794 27.7197C24.1107 27.2599 24.27 26.809 24.4562 26.3688C24.933 25.3357 25.2509 24.3822 24.6946 23.7464C24.1951 23.3406 23.5871 23.0919 22.9464 23.0313C22.2408 22.9369 21.5635 22.6928 20.9598 22.3161L20.8009 22.1572C20.0062 21.2036 18.7348 19.7732 17.3044 19.217L16.5098 18.9786C15.5856 18.7388 14.702 18.3642 13.8875 17.8661L12.9339 17.2304C12.1811 16.8213 11.4862 16.3137 10.8678 15.7206C10.7657 15.574 10.6851 15.4133 10.6294 15.2438H12.2187C13.3312 15.4027 14.7616 15.5616 15.4768 14.2902C16.1919 13.0188 18.3375 10.4759 19.0527 10.4759C19.6167 10.4763 20.1648 10.289 20.6107 9.94378C21.0566 9.59861 21.3752 9.11473 21.516 8.56873C21.6118 8.2193 21.5852 7.84717 21.4408 7.51481C21.2961 7.1824 21.0424 6.9096 20.7214 6.7411C19.6883 6.26431 18.3375 5.54913 17.225 6.42324L16.6687 6.97949C16.1919 7.53574 16.1125 7.53574 15.7946 7.37681L15.3178 7.13842C15.879 6.66766 16.2699 6.02556 16.4303 5.31074C16.5751 4.83218 16.5176 4.3153 16.2714 3.88038C15.9606 3.45148 15.5115 3.14285 15 3.00628C17.6468 2.04135 20.4815 1.70433 23.2806 2.02146C26.0799 2.33861 28.7675 3.30143 31.1312 4.83395C30.438 5.08015 29.8311 5.52182 29.383 6.10538C28.8126 6.68611 28.1719 7.19336 27.4758 7.6152C26.125 8.56878 25.1714 9.20449 25.1714 10.0786C25.1714 10.9527 27.6348 12.4625 29.9392 12.4625C31.1273 12.3575 32.2856 12.0343 33.3562 11.509C34.7071 10.9527 36.058 10.3965 36.8526 10.8732H37.0116C37.6969 12.0006 38.2564 13.1997 38.6803 14.4491H37.1705C36.2811 14.3459 35.4031 14.1597 34.5482 13.8929C32.9589 13.4956 31.3696 13.0188 30.1776 13.2572C29.0552 13.5761 28.0474 14.2093 27.273 15.0824C26.4985 15.9554 25.9902 17.0314 25.8071 18.184C25.5687 21.0447 26.8401 21.8393 28.0321 21.9982C28.7214 22.0543 29.4152 22.0277 30.0982 21.9188C30.7782 21.784 31.4757 21.757 32.1642 21.8393C32.3232 22.187 32.3785 22.5733 32.3232 22.9518C32.3107 23.4598 32.364 23.9675 32.4821 24.4616H32.7205C33.4346 24.4503 34.1324 24.6734 34.7071 25.0973C35.3084 25.5805 35.7284 26.2524 35.8991 27.0045V26.8456L37.0116 18.4223C37.1027 17.6472 37.4628 16.9285 38.029 16.3914C38.5952 15.8543 39.332 15.5326 40.1107 15.4822H40.5875C39.5108 11.1865 37.03 7.374 33.5386 4.6496C30.0475 1.92547 25.7457 0.445801 21.3174 0.445801C16.8891 0.445801 12.5873 1.92547 9.09625 4.6496C5.60482 7.37409 3.12399 11.1866 2.04736 15.4822H2.60352Z" fill="#00D5E4"/>
<path d="M22.3105 40.1161V38.5269H20.4033V40.1161H22.3105Z" fill="#00D5E4"/>
<path d="M9.27855 40.9107V45.6785C9.27855 45.8892 9.36228 46.0914 9.51127 46.2404C9.66027 46.3894 9.86248 46.4732 10.0732 46.4732H18.0196C18.2303 46.4732 18.4326 46.3894 18.5816 46.2404C18.7305 46.0914 18.8143 45.8892 18.8143 45.6785V35.9839C18.8228 34.7599 18.3354 33.5847 17.4634 32.7258L11.3446 26.6071C11.0427 26.2871 10.6351 26.0867 10.197 26.0427C9.75922 25.999 9.32004 26.1147 8.9607 26.3687C8.62865 26.6216 8.39806 26.9849 8.3108 27.3928C8.22317 27.8012 8.2849 28.2269 8.48391 28.5937L10.2321 30.4214C11.4237 31.7488 12.488 33.1856 13.4107 34.7124C11.8839 33.7898 10.4471 32.7255 9.11963 31.5339C7.78572 30.3813 6.53735 29.1329 5.3848 27.7991C5.29647 27.6838 5.24149 27.5461 5.22587 27.4017L4.03391 18.6607C3.99808 18.2513 3.81928 17.8674 3.52839 17.5769C3.23785 17.286 2.85401 17.1072 2.44459 17.0713C1.97419 17.0483 1.51617 17.2253 1.18306 17.5581C0.850298 17.8912 0.673279 18.3492 0.696338 18.8196L1.33205 30.2624L9.11955 40.4339C9.22278 40.5715 9.27848 40.7386 9.27848 40.9107H9.27855Z" fill="#00D5E4"/>
<path d="M38.6802 18.6607L37.5677 27.3223C37.5521 27.4666 37.4972 27.6043 37.4088 27.7196C36.2563 29.0535 35.0078 30.3019 33.674 31.4544C32.3465 32.646 30.9097 33.7103 29.3829 34.633C30.3056 33.1062 31.3699 31.6694 32.5615 30.3419L34.2302 28.5142C34.4293 28.1474 34.491 27.7217 34.4034 27.3134C34.3161 26.9054 34.0855 26.5421 33.7535 26.2892C33.3941 26.0352 32.9549 25.9196 32.5172 25.9632C32.0791 26.0072 31.6714 26.2076 31.3695 26.5276L25.1713 32.7258C24.2993 33.5847 23.8119 34.7599 23.8204 35.9839V45.6785C23.8204 45.8892 23.9041 46.0914 24.0531 46.2404C24.2021 46.3894 24.4043 46.4732 24.6151 46.4732H32.5615C32.7722 46.4732 32.9744 46.3894 33.1234 46.2404C33.2724 46.0914 33.3561 45.8892 33.3561 45.6785V40.9107C33.3561 40.7386 33.4118 40.5715 33.5151 40.4339L41.3026 30.2624L42.0177 18.8196C42.0408 18.3492 41.8638 17.8912 41.531 17.5581C41.1979 17.2253 40.7399 17.0483 40.2695 17.0713C39.8601 17.1072 39.4763 17.286 39.1857 17.5769C38.8948 17.8674 38.716 18.2512 38.6802 18.6607H38.6802Z" fill="#00D5E4"/>
</svg>
