<svg width="50" height="50" viewBox="0 0 52 56" fill="none" xmlns="http://www.w3.org/2000/svg">
<path d="M51.3599 40.2137C50.2619 38.2444 47.9874 37.3111 45.819 37.9474L32.4546 41.8742C32.0206 39.6302 30.3928 37.7885 28.1319 37.1096L19.3721 34.475C19.1887 34.4184 18.9901 34.4234 18.8088 34.4853L10.7366 37.2269V35.3613C10.7366 34.8509 10.3232 34.4363 9.81158 34.4363H0.956738C0.445102 34.4363 0.0317383 34.8509 0.0317383 35.3613V52.1075C0.0317383 52.6179 0.445102 53.0325 0.956738 53.0325H9.812C10.3236 53.0325 10.737 52.6179 10.737 52.1075V50.8753C14.4341 52.0613 24.1183 54.6149 28.6926 55.8083C28.8941 55.8612 29.1117 55.8434 29.3021 55.7584L49.1235 46.9312C50.35 46.3845 51.298 45.3401 51.7226 44.0666C52.1471 42.7918 52.0158 41.3878 51.3609 40.215L51.3599 40.2137ZM8.88712 51.1826H1.88185V36.2864H8.88712V51.1826ZM49.9666 43.4811C49.7019 44.2748 49.135 44.9 48.3694 45.2403L28.845 53.9353C22.6178 52.3083 13.0598 49.7406 10.7372 48.944V39.1799L19.1233 36.3319L27.5991 38.8801C29.3529 39.4083 30.5517 40.9337 30.6904 42.7337C30.0003 43.3775 27.7176 45.0722 23.4613 44.2294C22.9629 44.1286 22.4735 44.4561 22.3745 44.9574C22.2754 45.4587 22.6003 45.9452 23.1017 46.0442C24.0461 46.2321 24.9144 46.3114 25.7073 46.3114C29.4432 46.3114 31.5117 44.5436 32.1481 43.8915L46.3391 39.7216C47.6713 39.3314 49.0687 39.9037 49.7439 41.1137C50.1511 41.8454 50.2295 42.6853 49.9648 43.4799L49.9666 43.4811Z" fill="#00D5E4"/>
<path d="M6.21262 37.8574H4.55586C4.04422 37.8574 3.63086 38.272 3.63086 38.7824C3.63086 39.2928 4.04422 39.7074 4.55586 39.7074H6.21262C6.72425 39.7074 7.13761 39.2928 7.13761 38.7824C7.13761 38.272 6.72425 37.8574 6.21262 37.8574Z" fill="#00D5E4"/>
<path d="M26 28.0884C33.6506 28.0884 39.875 21.864 39.875 14.2134C39.875 6.56273 33.6506 0.338379 26 0.338379C18.3494 0.338379 12.125 6.56273 12.125 14.2134C12.125 21.864 18.3494 28.0884 26 28.0884ZM26 2.18838C32.6303 2.18838 38.025 7.58308 38.025 14.2134C38.025 20.8437 32.6303 26.2384 26 26.2384C19.3697 26.2384 13.975 20.8437 13.975 14.2134C13.975 7.58308 19.3697 2.18838 26 2.18838Z" fill="#00D5E4"/>
<path d="M23.0909 16.9863L21.3706 22.6953C21.2513 23.0901 21.4078 23.5158 21.7547 23.7397C22.1007 23.9627 22.5521 23.9313 22.8638 23.66L32.087 15.6191C32.31 15.425 32.4264 15.1352 32.4004 14.8411C32.3744 14.5471 32.21 14.2824 31.9565 14.1288L27.9105 11.6932L28.7153 4.9048C28.7644 4.49598 28.5369 4.10451 28.1566 3.94388C27.7775 3.78366 27.3381 3.89309 27.078 4.21312L19.8039 13.1707C19.6486 13.3623 19.5764 13.6084 19.6024 13.8533C19.6284 14.0986 19.7523 14.3232 19.9455 14.4769L23.0914 16.9863L23.0909 16.9863ZM26.5015 7.85652L26.0018 12.0682C25.9593 12.4291 26.1323 12.7813 26.4441 12.9701L29.9136 15.0588L24.0696 20.1553L25.0446 16.9207C25.1536 16.5581 25.0318 16.1667 24.7357 15.9309L21.8286 13.613L26.5027 7.85778L26.5015 7.85652Z" fill="#00D5E4"/>
</svg>
