<svg width="50" height="48" viewBox="0 0 58 48" fill="none" xmlns="http://www.w3.org/2000/svg">
<path d="M52.6859 14.6077H49.227C48.6037 14.6081 48.0065 14.8558 47.5661 15.2961C47.1254 15.7369 46.8777 16.3341 46.8773 16.9574V20.0351H41.6504L36.9453 11.4853C36.6834 11.0026 36.2964 10.5993 35.8247 10.3186C35.3529 10.0375 34.814 9.8892 34.2649 9.88879H28.193V2.92H34.6929C35.4991 2.92 36.1529 2.26618 36.1529 1.46C36.1529 0.653413 35.4991 0 34.6929 0H18.7852C17.9786 0 17.3252 0.653413 17.3252 1.46C17.3252 2.26618 17.9786 2.92 18.7852 2.92H25.2831V9.88879H20.0624C19.2925 9.89083 18.5417 10.1271 17.9102 10.5666C17.2784 11.0066 16.7961 11.6283 16.5272 12.3493L15.5442 15.0009H9.97475C9.16491 15.0013 8.38846 15.3235 7.81614 15.8963C7.24379 16.469 6.92238 17.2455 6.92238 18.0553V24.8392H2.92V15.4388C2.92 14.6326 2.26618 13.9788 1.46 13.9788C0.653413 13.9788 0 14.6326 0 15.4388V37.1458C0 37.952 0.653413 38.6058 1.46 38.6058C2.26618 38.6058 2.92 37.952 2.92 37.1458V27.7589H6.92238V35.2458C6.92279 36.0553 7.2446 36.8313 7.81695 37.4036C8.38931 37.976 9.16537 38.2978 9.97473 38.2982H15.7036L20.099 46.1705C20.3646 46.6447 20.7516 47.0398 21.2205 47.3153C21.689 47.5906 22.2226 47.7365 22.766 47.7377H39.1941C40.004 47.7373 40.7804 47.4151 41.3527 46.8423C41.9251 46.2696 42.2465 45.4931 42.2465 44.6833V37.2859H46.8774V40.5192H46.8778C46.8782 41.1424 47.1259 41.7396 47.5667 42.1804C48.007 42.6208 48.6042 42.8685 49.2275 42.8689H52.6869H52.6865C53.9456 42.8681 55.153 42.3662 56.042 41.4749C56.9313 40.5832 57.4295 39.3745 57.4266 38.1153V19.3481C57.4258 18.0909 56.9259 16.886 56.0371 15.9975C55.1486 15.1086 53.9437 14.6088 52.6865 14.608L52.6859 14.6077ZM22.6506 44.7442L17.8368 36.1304C17.5781 35.6684 17.0905 35.382 16.5617 35.3808H9.97416C9.93872 35.3812 9.9049 35.3674 9.87965 35.3425C9.8548 35.3177 9.84095 35.2834 9.84176 35.2484L9.97415 17.9234H16.5617C17.1699 17.9214 17.7129 17.5417 17.9243 16.9714L19.2653 13.3544C19.3903 13.0228 19.7073 12.8028 20.0617 12.8016L34.3832 12.8773L39.3259 21.863V35.8029L39.1935 44.8044L22.6506 44.7442ZM42.2459 34.351V22.9557H46.8768V34.351H42.2459ZM54.5099 38.116C54.5095 38.5983 54.3172 39.0606 53.9762 39.4016C53.6349 39.7426 53.1721 39.934 52.6898 39.934H49.7971V17.5282H52.6861H52.6857C53.1684 17.5282 53.6316 17.7197 53.973 18.0611C54.3144 18.4024 54.5059 18.8656 54.5059 19.3484L54.5099 38.116Z" fill="#00D5E4"/>
<path d="M30.9067 21.0286C31.7129 21.0286 32.3667 20.3748 32.3667 19.5686C32.3667 18.7621 31.7129 18.1086 30.9067 18.1086H22.5611C21.7549 18.1086 21.1011 18.7621 21.1011 19.5686C21.1011 20.3748 21.7549 21.0286 22.5611 21.0286H30.9067Z" fill="#00D5E4"/>
<path d="M32.172 27.1888C32.9781 27.1888 33.632 26.5354 33.632 25.7288C33.632 24.9226 32.9781 24.2688 32.172 24.2688H23.8267C23.0201 24.2688 22.3667 24.9226 22.3667 25.7288C22.3667 26.5354 23.0201 27.1888 23.8267 27.1888H32.172Z" fill="#00D5E4"/>
<path d="M33.4411 33.3509C34.2477 33.3509 34.9011 32.6971 34.9011 31.8909C34.9011 31.0843 34.2477 30.4309 33.4411 30.4309H25.0938C24.2876 30.4309 23.6338 31.0843 23.6338 31.8909C23.6338 32.6971 24.2876 33.3509 25.0938 33.3509H33.4411Z" fill="#00D5E4"/>
<path d="M34.7072 36.5911H26.3599C25.5533 36.5911 24.8999 37.2449 24.8999 38.0511C24.8999 38.8577 25.5533 39.5111 26.3599 39.5111H34.7072C35.5134 39.5111 36.1672 38.8577 36.1672 38.0511C36.1672 37.2449 35.5134 36.5911 34.7072 36.5911Z" fill="#00D5E4"/>
</svg>
