<svg width="50" height="49" viewBox="0 0 50 49" fill="none" xmlns="http://www.w3.org/2000/svg">
<path d="M49.8887 18.3128C49.7575 17.9046 49.5161 17.5417 49.192 17.2651C48.8678 16.9885 48.4737 16.8091 48.0542 16.7474L33.5325 14.609L27.0339 1.2834C26.8463 0.898183 26.556 0.573822 26.1959 0.347013C25.8357 0.120204 25.4201 0 24.9959 0C24.5718 0 24.1562 0.120204 23.796 0.347013C23.4358 0.573822 23.1455 0.898183 22.9579 1.2834L16.4594 14.609L1.9462 16.7474C1.52645 16.809 1.13211 16.9884 0.807804 17.2653C0.483502 17.5421 0.242182 17.9054 0.111151 18.3139C-0.0198796 18.7224 -0.0353917 19.16 0.0663706 19.577C0.168133 19.994 0.383107 20.3738 0.686969 20.6735L11.1944 31.0472L8.71432 45.6933C8.64161 46.1173 8.68783 46.5535 8.84771 46.9523C9.00759 47.351 9.27473 47.6964 9.61876 47.949C9.96279 48.2017 10.3699 48.3515 10.7938 48.3815C11.2178 48.4115 11.6415 48.3204 12.0169 48.1187L25.0002 41.204L37.9889 48.1187C38.3641 48.3189 38.7872 48.4088 39.2102 48.3781C39.6333 48.3473 40.0394 48.1973 40.3825 47.9448C40.7257 47.6924 40.9922 47.3477 41.1519 46.9498C41.3116 46.5519 41.3581 46.1166 41.2861 45.6933L38.806 31.0461L49.3134 20.6724C49.6172 20.3727 49.8321 19.9928 49.9337 19.5758C50.0354 19.1588 50.0198 18.7213 49.8887 18.3128ZM34.7779 28.5937C34.5139 28.8541 34.3164 29.1755 34.2024 29.5304C34.0885 29.8853 34.0615 30.2629 34.1238 30.6307L36.0276 41.874L26.0581 36.5658C25.7318 36.3922 25.3688 36.3015 25.0002 36.3015C24.6316 36.3015 24.2686 36.3922 23.9423 36.5658L13.9729 41.874L15.8766 30.6307C15.9389 30.2629 15.9119 29.8853 15.798 29.5304C15.684 29.1755 15.4865 28.8541 15.2225 28.5937L7.15679 20.6314L18.3035 18.9915C18.6682 18.9377 19.0145 18.795 19.3127 18.5757C19.611 18.3564 19.8521 18.067 20.0155 17.7324L25.0002 7.50221L29.9849 17.7324C30.1483 18.067 30.3894 18.3564 30.6877 18.5757C30.9859 18.795 31.3322 18.9377 31.6969 18.9915L42.8436 20.6314L34.7779 28.5937Z" fill="#00D5E4"/>
</svg>
