<svg width="50" height="50" viewBox="0 0 50 50" fill="none" xmlns="http://www.w3.org/2000/svg">
<path d="M25.5143 0.00493808C25.0839 -0.0303511 24.6592 0.124754 24.3539 0.430049L1.38053 23.4005C-0.460176 25.2412 -0.460176 28.2696 1.38053 30.1103L19.901 48.6195C21.7417 50.4602 24.7701 50.4602 26.6108 48.6195L49.5726 25.6574C49.8767 25.3513 50.0309 24.927 49.9948 24.497L48.1508 3.19571C48.0863 2.48664 47.5242 1.9257 46.8151 1.86288L25.5143 0.00493808ZM25.948 2.99224L45.3278 4.68401L47.011 24.064L24.5261 46.546C23.8022 47.2698 22.6992 47.2698 21.9755 46.546L3.4665 28.0253C2.74268 27.3014 2.74268 26.1984 3.4665 25.4746L25.948 2.99224ZM37.7824 6.71487C36.3664 6.71487 34.9479 7.24871 33.876 8.3205C31.732 10.4645 31.732 13.9951 33.876 16.1391C36.02 18.2831 39.5362 18.2831 41.6801 16.1391C43.8241 13.9951 43.8241 10.4645 41.6801 8.3205C40.6084 7.24871 39.1984 6.71487 37.7824 6.71487ZM37.7824 9.64177C38.4394 9.64177 39.0963 9.89577 39.6063 10.4058C40.6264 11.4255 40.6264 13.0336 39.6063 14.0538C38.5862 15.0738 36.9785 15.0738 35.9584 14.0538C34.9383 13.0341 34.9383 11.4259 35.9584 10.4058C36.4685 9.89576 37.1254 9.64177 37.7823 9.64177H37.7824ZM30.2771 18.5978C29.8885 18.5978 29.5155 18.7517 29.2402 19.0258L27.9677 20.2982C27.1077 19.5112 25.9407 19.2395 24.8657 19.3733C23.7438 19.5128 22.6646 20.0635 21.7922 20.9359C20.9199 21.8082 20.3778 22.876 20.2383 23.9977C20.0988 25.1196 20.4037 26.3548 21.2724 27.2234L22.7918 28.7429C22.9437 28.8947 23.0368 29.1134 22.9872 29.5127C22.9379 29.9119 22.7069 30.4306 22.2691 30.8684C21.8312 31.3062 21.3126 31.5368 20.9134 31.5865C20.5141 31.6361 20.2925 31.543 20.1407 31.3912L19.6151 30.8684C19.5929 30.843 19.5699 30.8179 19.5457 30.7937L17.2421 28.493H17.2425C16.6689 27.9226 15.7419 27.9226 15.1683 28.493C14.8917 28.7691 14.7366 29.1438 14.7366 29.5344C14.7366 29.9251 14.8917 30.2997 15.1683 30.5755L16.4264 31.8393L15.1597 33.106C14.8823 33.3822 14.7263 33.7572 14.7263 34.1487C14.7263 34.5402 14.8823 34.9156 15.1597 35.1914C15.7333 35.7617 16.6602 35.7617 17.2339 35.1914L18.5465 33.8787C19.3536 34.4343 20.3475 34.6226 21.2723 34.5077C22.3942 34.3682 23.4705 33.8147 24.3428 32.9423C25.2152 32.07 25.7659 30.9936 25.9054 29.8719C26.0449 28.7501 25.7429 27.5264 24.8742 26.6576L24.1647 25.9482C24.1487 25.9305 24.1323 25.9133 24.1159 25.8965L23.3432 25.1382C23.1914 24.9863 23.1098 24.7676 23.1594 24.3684C23.2086 23.9691 23.4397 23.4476 23.8775 23.0097C24.3153 22.5719 24.8225 22.3441 25.2217 22.2945C25.621 22.2448 25.8512 22.338 26.003 22.4898L28.8926 25.388H28.8922C29.1683 25.6646 29.543 25.8201 29.9336 25.8201C30.3243 25.8201 30.6989 25.6646 30.975 25.388C31.2524 25.1119 31.4084 24.7368 31.4084 24.3454C31.4084 23.9539 31.2524 23.5789 30.975 23.3027L30.0473 22.3749L31.314 21.1111C31.5914 20.835 31.7473 20.4599 31.7473 20.0685C31.7473 19.677 31.5914 19.3019 31.314 19.0258C31.0383 18.7517 30.6657 18.5978 30.2771 18.5978L30.2771 18.5978Z" fill="#00D5E4"/>
</svg>
